<?xml version="1.0" encoding="UTF-8"?>
<svg id="Layer_2" data-name="Layer 2" xmlns="http://www.w3.org/2000/svg" viewBox="0 0 427.55 123.11">
  <defs>
    <style>
      .cls-1 {
        fill: #00abdb;
      }

      .cls-2 {
        fill: #f1f2f1;
      }
    </style>
  </defs>
  <g id="UI">
    <g id="pocet_bodu" data-name="pocet bodu">
      <g>
        <path class="cls-2" d="M61.56,120.61C28.99,120.61,2.5,94.12,2.5,61.56S28.99,2.5,61.56,2.5H365.99c32.56,0,59.06,26.49,59.06,59.06s-26.49,59.06-59.06,59.06H61.56Z"/>
        <path class="cls-1" d="M365.99,5c31.18,0,56.56,25.37,56.56,56.56s-25.37,56.56-56.56,56.56H61.56c-31.18,0-56.56-25.37-56.56-56.56S30.37,5,61.56,5H365.99m0-5H61.56C27.56,0,0,27.56,0,61.56s27.56,61.56,61.56,61.56H365.99c34,0,61.56-27.56,61.56-61.56S399.99,0,365.99,0h0Z"/>
      </g>
    </g>
  </g>
</svg>