<?xml version="1.0" encoding="UTF-8"?>
<svg id="Layer_2" data-name="Layer 2" xmlns="http://www.w3.org/2000/svg" viewBox="0 0 45.69 77.46">
  <defs>
    <style>
      .cls-1 {
        fill: #00abdb;
      }
    </style>
  </defs>
  <g id="UI">
    <g id="ikony">
      <path class="cls-1" d="M36,42.91c-3.23,.28-6.14,1.16-8.64,3.13-1.48,1.17-2.7,2.56-3.54,4.26-.45,.92-.26,1.71,.49,2.09,.77,.39,1.48,.08,1.97-.83,1.8-3.36,4.74-5.06,8.39-5.69,.74-.13,1.5-.16,2.26-.2,1.4-.06,1.84-.49,1.84-1.88,0-4.7-.01-9.4,.01-14.1,0-1.79,1.3-3.18,3.08-3.4,1.54-.2,3.2,.9,3.65,2.48,.15,.51,.18,1.07,.18,1.6,.01,5.35,0,10.7,.01,16.05,.02,5.53-1.98,10.16-6.16,13.81-1.99,1.74-3.77,3.63-5.07,5.95-1.66,2.95-2.52,6.12-2.63,9.5-.04,1.36-.48,1.78-1.82,1.78-7.54,0-15.08,0-22.62,0-1.39,0-1.84-.46-1.85-1.85-.02-2.72,.26-5.49-.67-8.11-.6-1.69-1.26-3.41-2.2-4.92C.89,59.69,0,56.63,0,53.23c.03-12.24,.02-24.48,0-36.71,0-1.1,.26-2.08,1.01-2.91,.87-.95,1.94-1.38,3.21-1.06,1.37,.34,2.26,1.23,2.59,2.61,.11,.44,.12,.91,.12,1.37,0,4.4,0,8.81,0,13.21,0,.3-.02,.6,.03,.89,.1,.67,.5,1.07,1.17,1.14,.7,.08,1.23-.22,1.44-.9,.11-.35,.12-.74,.12-1.12,0-6.73,.01-13.45,0-20.18,0-1.13,.27-2.14,1.07-2.96,.95-.97,2.09-1.35,3.4-.91,1.34,.45,2.16,1.4,2.38,2.81,.06,.4,.05,.81,.05,1.21,0,6.21,0,12.43,0,18.64,0,.37,0,.77,.11,1.12,.19,.65,.71,.97,1.36,.93,.65-.04,1.12-.4,1.24-1.08,.06-.34,.06-.7,.06-1.05,0-8,0-15.99,0-23.99,0-1.08,.16-2.09,.86-2.97,.92-1.14,2.28-1.59,3.61-1.17,1.34,.42,2.33,1.66,2.43,3.04,.02,.32,.01,.65,.01,.97,0,8,0,15.99,0,23.99,0,.22,0,.43,0,.65,.03,.99,.6,1.64,1.43,1.62,.8-.03,1.33-.64,1.33-1.62,0-6.51,0-13.02,0-19.53,0-1.79,.94-3.15,2.46-3.6,2.13-.64,4.31,.92,4.47,3.21,.02,.22,0,.43,0,.65,0,10.83,0,21.67,0,32.5v.88Z"/>
    </g>
  </g>
</svg>