<?xml version="1.0" encoding="UTF-8"?>
<svg id="Layer_2" data-name="Layer 2" xmlns="http://www.w3.org/2000/svg" viewBox="0 0 66.23 57.03">
  <defs>
    <style>
      .cls-1 {
        fill: #00abdb;
      }
    </style>
  </defs>
  <g id="UI">
    <g id="ikony">
      <g>
        <path class="cls-1" d="M21.98,9.61c3.2,0,6.39,0,9.59,0,3.56,0,5.66,2.12,5.67,5.67,0,1.53,.02,3.06-.02,4.59,0,.26-.23,.63-.46,.76-2.38,1.39-3.58,3.44-3.59,6.18-.02,3.93,0,7.87,0,11.8,0,1.31-.4,1.72-1.69,1.73-6.36,0-12.73,0-19.09,0-1.27,0-1.7-.45-1.7-1.74,0-3.91-.01-7.82,0-11.72,.01-2.79-1.18-4.85-3.59-6.25-.21-.12-.42-.47-.43-.71-.03-1.79-.05-3.59,0-5.39,.07-2.61,2.17-4.81,4.79-4.88,3.51-.08,7.02-.02,10.54-.02,0,0,0-.02,0-.02Z"/>
        <path class="cls-1" d="M29.84,51.04H13.98c0,1.18,0,2.36,0,3.54,0,.34,.01,.69,0,1.03-.04,.86-.53,1.39-1.39,1.4-1.93,.03-3.85,.03-5.78,0-.89-.01-1.39-.57-1.4-1.48-.02-1.45-.02-2.9-.03-4.35,0-.02-.02-.04-.1-.17-.37,0-.81,0-1.25,0C1.73,50.94,.02,49.25,.01,46.97c-.01-6.78-.01-13.57,0-20.35,0-2.26,1.72-3.98,3.93-4.02,2.25-.03,4.01,1.66,4.03,3.99,.03,3.96,0,7.92,.01,11.88,0,2.98,1.57,4.56,4.53,4.56,6.28,0,12.57,0,18.85,0,2.94,0,4.5-1.56,4.5-4.49,0-3.93-.02-7.87,0-11.8,.02-2.95,2.71-4.88,5.37-3.91,1.64,.6,2.61,2.08,2.62,4.03,0,5.54,0,11.09,0,16.63,0,1.06,0,2.11,0,3.17-.02,2.68-1.68,4.33-4.37,4.34-.31,0-.62,0-1.03,0,0,1.41,0,2.75,0,4.09,0,1.51-.42,1.93-1.93,1.93-1.66,0-3.33,0-4.99,0-1.19,0-1.69-.5-1.7-1.68-.01-1.42,0-2.84,0-4.29Z"/>
        <path class="cls-1" d="M59.3,54.33c.63,0,1.23-.01,1.83,0,.9,.02,1.46,.53,1.47,1.31,.01,.8-.57,1.37-1.5,1.38-2.14,.02-4.28,.01-6.41,0-.93,0-1.53-.57-1.53-1.36,0-.79,.6-1.32,1.54-1.34,.58-.01,1.15,0,1.79,0V16.76c-1.49,0-2.95,0-4.42,0-2.48,0-2.73-.28-2.32-2.72,.7-4.13,1.41-8.26,2.12-12.4C52.1,.3,52.47,0,53.83,0c2.72,0,5.44,0,8.16,0,1.31,0,1.68,.32,1.9,1.59,.76,4.42,1.53,8.83,2.29,13.25,.21,1.21-.32,1.9-1.55,1.91-1.76,.02-3.52,0-5.33,0V54.33Z"/>
      </g>
    </g>
  </g>
</svg>