<?xml version="1.0" encoding="UTF-8"?>
<svg id="Layer_2" data-name="Layer 2" xmlns="http://www.w3.org/2000/svg" viewBox="0 0 56.46 65.85">
  <defs>
    <style>
      .cls-1 {
        fill: #00abdb;
      }
    </style>
  </defs>
  <g id="UI">
    <g id="ikony">
      <g>
        <path class="cls-1" d="M4.71,39.95c-.86,0-1.57,.01-2.27,0-1.38-.02-2.42-1.02-2.43-2.33-.01-1.34,1.03-2.36,2.46-2.37,1.64-.01,3.28-.02,4.92,0,.43,0,.65-.14,.84-.52,.78-1.61,1.57-3.2,2.38-4.8,1.38-2.72,3.61-4.1,6.67-4.1,7.3,0,14.6,0,21.89,0,3.06,0,5.28,1.38,6.66,4.11,.79,1.57,1.59,3.14,2.35,4.73,.21,.45,.47,.58,.96,.57,1.59-.03,3.18-.02,4.78,0,1.45,0,2.5,.98,2.51,2.32,.02,1.36-1.04,2.37-2.52,2.38-.67,0-1.35,0-2.17,0,1.01,1.35,1.89,2.6,2.86,3.8,1.32,1.64,1.93,3.47,1.85,5.58-.06,1.52-.01,3.04-.01,4.55,0,1.65-.66,2.97-1.96,3.99-.2,.16-.35,.5-.37,.77-.05,.83,0,1.66-.02,2.5-.05,2.62-2.07,4.64-4.69,4.67-1.59,.02-3.18,.02-4.78,0-2.57-.04-4.59-2.07-4.64-4.64-.02-.78,0-1.55,0-2.37H16.47c0,.5-.04,1.01,0,1.51,.28,3.33-2.08,5.78-5.55,5.52-1.27-.09-2.55,0-3.82-.02-2.7-.03-4.71-2.06-4.74-4.77,0-.27-.02-.54,0-.81,.1-1.21,0-2.23-1.11-3.14-.65-.54-1.1-1.63-1.16-2.51-.16-2.27-.1-4.55-.02-6.83,.05-1.29,.62-2.46,1.4-3.5,1.04-1.39,2.08-2.78,3.23-4.32Zm6.57-.85c.63,.55,1.3,.85,2.14,.85,9.87-.01,19.73-.01,29.6,0,.83,0,1.51-.29,2.14-.85-1.23-2.45-2.45-4.9-3.7-7.34-.41-.8-1.13-1.21-2.04-1.22-7.47,0-14.93,0-22.4,0-.9,0-1.63,.41-2.04,1.21-1.25,2.43-2.47,4.88-3.7,7.34Zm-1.86,7.9c-1.91-.02-3.52,1.56-3.53,3.47-.01,1.96,1.56,3.57,3.51,3.57,1.92,0,3.51-1.56,3.54-3.47,.02-1.95-1.55-3.56-3.51-3.57Zm37.6,7.04c1.92,0,3.51-1.56,3.53-3.48,.02-1.95-1.56-3.55-3.52-3.56-1.91-.01-3.52,1.57-3.53,3.48-.01,1.96,1.57,3.56,3.52,3.57Z"/>
        <path class="cls-1" d="M35.68,18.79c-3.82,0-7.64,0-11.46,0-.5,0-.84,.12-1.18,.53-5.17,6.16-14.93,5.37-19.01-1.53-.11-.19-.22-.38-.32-.58-.54-1.08-.04-1.92,1.16-1.93,1.64-.01,3.28-.02,4.92,0,1.15,.02,1.98-.44,2.5-1.46,.29-.56,.67-1.12,.77-1.72,.31-1.83-1.51-3.87-3.37-3.88-1.52,0-3.04,0-4.55,0-1.58,0-2.05-.82-1.28-2.22C7.78-1.15,17.8-2.1,23.06,4.19c.32,.38,.64,.51,1.11,.51,7.59-.01,15.18-.02,22.77,0,3.4,0,6.37,2.45,7.01,5.69,.85,4.28-2.43,8.35-6.82,8.4-3.82,.04-7.64,0-11.46,0Z"/>
      </g>
    </g>
  </g>
</svg>