<?xml version="1.0" encoding="UTF-8"?>
<svg id="Layer_2" data-name="Layer 2" xmlns="http://www.w3.org/2000/svg" viewBox="0 0 53.13 46.71">
  <defs>
    <style>
      .cls-1 {
        fill: #00abdb;
      }
    </style>
  </defs>
  <g id="UI">
    <g id="ikony">
      <path class="cls-1" d="M48.2,3.12C45.51,.89,42.14-.21,38.74,.03c-3.4,.24-6.6,1.81-8.99,4.41l-3.19,3.39-3.19-3.39C20.99,1.85,17.79,.28,14.39,.03c-3.4-.24-6.77,.86-9.46,3.09C1.97,5.69,.18,9.47,.01,13.53c-.18,4.04,1.25,7.97,3.94,10.83l19.88,21.15c.72,.77,1.71,1.2,2.73,1.2s2.01-.43,2.73-1.2l19.88-21.15c2.69-2.86,4.12-6.8,3.94-10.85-.19-4.05-1.97-7.82-4.91-10.39h0Z"/>
    </g>
  </g>
</svg>