<?xml version="1.0" encoding="UTF-8"?>
<svg id="Layer_2" data-name="Layer 2" xmlns="http://www.w3.org/2000/svg" viewBox="0 0 73.13 58.33">
  <defs>
    <style>
      .cls-1 {
        fill: #00abdb;
      }
    </style>
  </defs>
  <g id="UI">
    <g id="ikony">
      <g>
        <path class="cls-1" d="M28.89,41.66c-.31,1.17-.59,2.26-.88,3.34-.61,2.21-2.44,3.29-4.65,2.75-1.13-.28-2.26-.55-3.37-.87-2.09-.6-3.13-2.37-2.63-4.49,.42-1.8,.93-3.57,1.36-5.36,.08-.35,.07-.77-.06-1.1-.58-1.56-.67-3.14-.28-4.75,.43-1.76,.88-3.52,1.38-5.27,.83-2.87,2.8-4.54,5.67-5.24,.37-.09,.77-.33,1-.62,1.8-2.34,3.56-4.7,5.32-7.07,3.06-4.13,8.25-6.04,13.23-4.76,4.73,1.22,9.44,2.48,14.15,3.78,5.97,1.66,9.19,5.6,9.82,11.84,.28,2.73,.6,5.45,.93,8.17,.03,.28,.25,.58,.47,.79,2.29,2.21,3.38,4.77,2.47,7.98-.42,1.49-.79,2.99-1.17,4.49-.4,1.59-1.23,2.87-2.46,3.95-.39,.35-.72,.86-.88,1.36-.5,1.59-.9,3.21-1.34,4.82-.63,2.26-2.44,3.33-4.73,2.77-1.1-.27-2.2-.54-3.29-.84-2.03-.56-3.15-2.41-2.68-4.48,.27-1.18,.59-2.35,.91-3.61-9.45-2.54-18.83-5.06-28.28-7.59Zm5.18-19.31c9.56,2.54,18.93,5.03,28.43,7.56-.25-2.09-.49-3.95-.69-5.81-.29-2.61-1.69-4.32-4.25-5.02-4.59-1.25-9.2-2.47-13.8-3.68-2.17-.57-4.15-.12-5.62,1.58-1.41,1.64-2.63,3.45-4.06,5.36Zm29.73,13.63c-2.05,.21-3.81,1.12-5.19,2.71-1.25,1.44-.95,2.73,.82,3.42,1.15,.45,2.37,.75,3.58,1.08,1.49,.41,2.8,.06,3.78-1.13,1-1.21,1.14-2.6,.48-4.01-.66-1.42-1.92-1.95-3.46-2.07Zm-33.35-1.49c2.16,.04,2.89-.67,2.7-2.18-.26-2.13-1.24-3.91-2.97-5.2-1.68-1.24-3.98-.71-5.02,1.07-1.16,2-.56,4.42,1.45,5.22,1.42,.57,2.96,.84,3.85,1.09Z"/>
        <path class="cls-1" d="M2.98,8.9c2.08,.41,3.98,.78,5.88,1.16,.96,.19,1.92,.4,2.89,.58,1.07,.2,1.48-.13,1.58-1.22,.24-2.67,.49-5.34,.73-8.01,.01-.12-.01-.26,.05-.35,.24-.38,.45-.99,.76-1.05,.37-.06,.98,.24,1.22,.58,1.54,2.2,3,4.44,4.49,6.67,.82,1.22,1.19,1.28,2.33,.33,2.04-1.69,4.07-3.41,6.15-5.05,.35-.28,1.01-.42,1.42-.3,.58,.18,.58,.78,.44,1.37-.3,1.37-.57,2.74-.81,4.12-.21,1.22-.63,2.28-1.44,3.27-1.53,1.87-2.88,3.87-4.34,5.8-.23,.31-.59,.59-.95,.72-3.52,1.28-5.84,3.73-6.96,7.27-.6,1.9-1.13,3.83-1.58,5.77-.23,1-.17,2.07-.32,3.09-.06,.39-.22,.85-.5,1.1-1.02,.91-2.11,1.75-3.17,2.62-.43,.36-.87,.66-1.45,.31-.55-.34-.56-.82-.44-1.4,.54-2.62,1.04-5.26,1.56-7.88,.27-1.36,.01-1.69-1.4-1.82-2.61-.23-5.22-.48-7.83-.72-.59-.05-1.27-.18-1.3-.83-.02-.41,.36-.99,.73-1.25,2.17-1.52,4.4-2.96,6.6-4.43,1.17-.78,1.22-1.2,.33-2.28-1.73-2.09-3.48-4.16-5.16-6.29-.24-.31-.32-.88-.23-1.28,.06-.28,.53-.46,.72-.62Z"/>
      </g>
    </g>
  </g>
</svg>