<?xml version="1.0" encoding="UTF-8"?>
<svg id="Layer_2" data-name="Layer 2" xmlns="http://www.w3.org/2000/svg" viewBox="0 0 62.37 59.26">
  <defs>
    <style>
      .cls-1 {
        fill: #00abdb;
      }
    </style>
  </defs>
  <g id="UI">
    <g id="ikony">
      <g>
        <path class="cls-1" d="M62.37,28.06v1.22c-.39,.63-.69,1.33-1.18,1.86-.6,.66-1.49,.77-2.36,.77-1.35,0-2.71,0-4.13,0v.78c0,8.14,0,16.28,0,24.42,0,1.48-.68,2.16-2.15,2.16-4.89,0-9.78,0-14.68,0-1.51,0-2.17-.68-2.17-2.2,0-4.79,0-9.58,0-14.37,0-.24,0-.47,0-.7h-9.01v.71c0,4.77,0,9.54,0,14.31,0,1.6-.65,2.26-2.24,2.26-4.83,0-9.66,0-14.49,0-1.64,0-2.27-.64-2.27-2.29,0-8.1,0-16.2,0-24.3v-.77c-.33,0-.59,0-.85,0-1.34-.02-2.68,.02-4.02-.06-1.16-.08-1.99-.75-2.49-1.8-.67-1.41-.3-2.78,1.06-4.02C10.51,17.72,19.63,9.41,28.75,1.1c.28-.26,.59-.5,.92-.69,1.33-.73,2.67-.48,3.99,.73,8.94,8.15,17.88,16.3,26.83,24.44,.79,.72,1.53,1.44,1.87,2.48Z"/>
        <path class="cls-1" d="M42.11,3.67c.34,0,.68,0,1.02,0,3.57,0,7.14,0,10.72,0,1.52,0,2.19,.67,2.2,2.18,0,3.33,0,6.66,0,9.98,0,.18,0,.35,0,.69-4.73-4.3-9.36-8.51-13.99-12.72,.02-.04,.04-.09,.05-.13Z"/>
      </g>
    </g>
  </g>
</svg>