<?xml version="1.0" encoding="UTF-8"?>
<svg id="Layer_2" data-name="Layer 2" xmlns="http://www.w3.org/2000/svg" viewBox="0 0 59.93 59.94">
  <defs>
    <style>
      .cls-1 {
        fill: #00abdb;
      }
    </style>
  </defs>
  <g id="UI">
    <g id="ikony">
      <path class="cls-1" d="M53.1,20.04h-13.2V6.84c0-3.78-3.06-6.84-6.84-6.84h-6.19c-3.78,0-6.84,3.06-6.84,6.84v13.2H6.84c-3.77,0-6.84,3.06-6.84,6.84v6.19c0,3.78,3.06,6.84,6.84,6.84h13.2v13.2c0,3.78,3.06,6.84,6.84,6.84h6.19c3.78,0,6.84-3.06,6.84-6.84v-13.2s13.2,0,13.2,0c3.78,0,6.84-3.06,6.84-6.84v-6.19c0-3.78-3.06-6.84-6.84-6.84h0Z"/>
    </g>
  </g>
</svg>