<?xml version="1.0" encoding="UTF-8"?>
<svg id="Layer_2" data-name="Layer 2" xmlns="http://www.w3.org/2000/svg" viewBox="0 0 128.11 128.11">
  <defs>
    <style>
      .cls-1 {
        fill: #c66a6a;
        stroke: #af1c1c;
        stroke-miterlimit: 10;
        stroke-width: 5px;
      }

      .cls-2 {
        fill: #af1c1c;
      }
    </style>
  </defs>
  <g id="UI">
    <g id="ikona_mapy" data-name="ikona mapy">
      <g>
        <circle class="cls-1" cx="64.06" cy="64.06" r="61.56"/>
        <g>
          <path class="cls-2" d="M30.2,41.69c4.06,1.67,7.9,3.25,11.75,4.84,1.61,.66,3.2,1.36,4.83,1.95,.49,.18,1.14,.2,1.62,.03,4.16-1.43,8.3-2.92,12.44-4.39,.31-.11,.63-.22,.97-.33,.62,1.36,1.21,2.66,1.85,4.07-1.31,.46-2.62,.93-3.92,1.38-2.32,.8-4.65,1.57-6.96,2.41-.31,.11-.7,.57-.7,.88-.03,11.95-.02,23.91,0,35.86,0,.03,.01,.07,.04,.19,.25-.07,.5-.12,.73-.21,6.84-2.81,13.68-5.64,20.53-8.43,.62-.25,.77-.59,.77-1.22-.02-5.36-.01-10.72-.01-16.09v-1.4c.83,1.03,1.49,1.83,2.19,2.69,.74-.9,1.42-1.74,2.32-2.83v1.3c0,4.82,0,9.63,0,14.45,0,.47-.06,.9,.56,1.15,3.95,1.59,7.89,3.23,11.83,4.85,.09,.04,.19,.03,.46,.06v-1.21c0-11.03-.02-22.06,.02-33.09,0-1.53,.08-2.97-1.76-3.54,.57-1.47,1.09-2.81,1.66-4.3,1.44,.77,2.84,1.5,4.23,2.27,.17,.09,.29,.36,.34,.56,.06,.22,.02,.47,.02,.71,0,14.72,0,29.44,0,44.16v1.26c-.93-.37-1.71-.67-2.48-.99-4.67-1.92-9.34-3.83-13.99-5.78-.66-.28-1.19-.24-1.83,.03-9.76,4.04-19.53,8.07-29.32,12.06-.46,.19-1.14,.18-1.61,0-5.22-2.1-10.41-4.28-15.62-6.39-.71-.29-.96-.64-.96-1.41,.02-14.79,.02-29.58,.02-44.36,0-.33,0-.66,0-1.19Zm17.27,48.8c.04-.25,.07-.35,.07-.45,0-11.88,0-23.75,.02-35.63,0-.6-.25-.83-.75-1.03-3.66-1.49-7.31-3-10.97-4.5-.33-.14-.67-.23-1.14-.39,0,.57,0,1.01,0,1.45,0,11.06,0,22.12,0,33.17q0,2.1,1.91,2.89c3.58,1.48,7.17,2.96,10.85,4.48Z"/>
          <path class="cls-2" d="M76.26,60.7c-4.26-5.64-8.47-11.3-11.25-17.87-2.02-4.76-1.08-9.1,2.37-12.77,3.48-3.71,7.88-4.86,12.73-3.29,4.75,1.54,7.53,4.95,8.44,9.89,.43,2.33-.15,4.48-1.06,6.56-2.78,6.33-6.81,11.88-11,17.32-.04,.05-.11,.08-.23,.16Zm.05-15.72c3.28,.01,5.94-2.61,5.98-5.88,.05-3.27-2.69-6.02-5.98-6.01-3.27,.01-5.91,2.66-5.91,5.95,0,3.3,2.62,5.93,5.9,5.94Z"/>
        </g>
      </g>
    </g>
  </g>
</svg>